# xmcd
#
# Track frame offsets:
#	150
#	16013
#	33604
#	48214
#	66248
#	82431
#	98480
#	115307
#	132173
#	145908
#
# Disc length: 2192 seconds
# Revision: 0
# Processed by: cddbd v1.5.2PL0 Copyright (c) Steve Scherf et al.
# Submitted via: dBpowerAMP V12.0
#
DISCID=85088e0a
DTITLE=Terry Keplinger and The Fifty Buck Band - A Whiskey Way Of Thinkin'
DYEAR=2011
DGENRE=Country
TTITLE0=Edge of Loving You
TTITLE1=Their Song
TTITLE2=One Heart One Woman
TTITLE3=Lover on Her Mind
TTITLE4=Number One Country Song
TTITLE5=A Whiskey Way of Thinkin'
TTITLE6=Temporary Insanity
TTITLE7=Singin' Songs to the Workin' Man
TTITLE8=It's a Wonder
TTITLE9=The Proposal
EXTD=
EXTT0=
EXTT1=
EXTT2=
EXTT3=
EXTT4=
EXTT5=
EXTT6=
EXTT7=
EXTT8=
EXTT9=
PLAYORDER=
